<?xml version="1.0" standalone="no"?>
<!DOCTYPE svg PUBLIC "-//W3C//DTD SVG 20010904//EN"
 "http://www.w3.org/TR/2001/REC-SVG-20010904/DTD/svg10.dtd">
<svg version="1.0" xmlns="http://www.w3.org/2000/svg"
 width="157.000000pt" height="56.000000pt" viewBox="0 0 157.000000 56.000000"
 preserveAspectRatio="xMidYMid meet">

<g transform="translate(0.000000,56.000000) scale(0.100000,-0.100000)"
fill="#000000" stroke="none">
<path d="M427 483 c5 -13 2 -15 -18 -9 -13 4 -35 10 -49 13 -24 5 -24 5 -6 -9
15 -12 17 -19 8 -33 -8 -16 -6 -21 11 -30 26 -13 35 -52 12 -52 -18 0 -20 13
-2 20 9 4 9 6 -1 6 -7 1 -10 5 -7 11 3 6 -1 7 -10 3 -13 -5 -14 -7 -3 -14 12
-8 5 -13 -14 -10 -8 1 6 -50 20 -76 6 -10 12 -16 14 -14 2 3 15 -3 30 -13 15
-10 31 -15 36 -12 13 8 39 -24 44 -56 4 -21 0 -31 -19 -43 -28 -19 -53 -6 -53
27 0 17 -3 18 -15 8 -11 -9 -18 -9 -35 3 -11 7 -17 17 -13 20 3 4 1 7 -6 7
-39 0 -109 -126 -84 -151 6 -6 14 5 22 33 16 52 28 68 52 68 24 0 38 -48 18
-61 -10 -6 -10 -9 -2 -9 7 0 10 -7 7 -15 -5 -13 -2 -14 20 -5 25 9 26 8 15
-11 -11 -21 -10 -21 12 -5 13 9 36 16 51 16 15 0 30 5 34 12 5 8 11 6 19 -6
11 -14 14 -12 20 20 4 26 9 33 15 24 6 -9 12 -1 20 27 16 52 0 106 -38 131
-15 9 -33 22 -40 29 -7 7 -19 13 -27 13 -18 0 -28 32 -13 42 18 11 32 10 47
-4 11 -10 13 -10 7 0 -4 6 -2 12 3 12 6 0 11 -4 11 -10 0 -16 37 -12 44 5 4
10 -1 15 -15 15 -12 0 -23 8 -26 19 -3 11 -20 27 -39 36 -19 9 -34 20 -34 24
0 5 -7 11 -14 14 -11 4 -13 1 -9 -10z m7 -144 c3 0 16 -4 28 -9 13 -5 17 -9
10 -9 -7 -1 -10 -7 -7 -13 4 -7 -3 -3 -14 10 -11 13 -23 22 -28 22 -4 -1 -9 4
-11 12 -3 11 -2 11 6 0 5 -8 12 -13 16 -13z"/>
<path d="M800 470 c0 -6 -37 -10 -90 -10 -53 0 -90 -4 -90 -10 0 -5 7 -10 15
-10 13 0 15 -24 15 -160 0 -155 -1 -160 -21 -160 -11 0 -17 -4 -14 -10 8 -13
125 -13 125 0 0 6 -9 10 -20 10 -19 0 -20 7 -20 111 0 100 2 110 18 107 10 -2
18 -14 20 -31 6 -51 22 -27 22 33 0 33 -4 60 -10 60 -5 0 -10 -11 -10 -25 0
-18 -5 -25 -20 -25 -17 0 -20 7 -20 45 0 43 1 45 28 45 37 0 60 -18 71 -55 8
-26 9 -21 10 33 1 34 -1 62 -4 62 -3 0 -5 -4 -5 -10z"/>
<path d="M10 451 c0 -5 9 -11 20 -14 19 -5 20 -14 20 -145 0 -126 2 -142 21
-166 28 -36 89 -37 124 -1 24 23 25 28 25 170 0 138 1 145 20 145 11 0 20 5
20 10 0 6 -20 10 -45 10 -46 0 -61 -14 -25 -23 19 -5 20 -14 20 -130 0 -69 -4
-137 -10 -151 -12 -33 -52 -43 -85 -22 -25 16 -25 18 -25 161 0 138 1 145 20
145 11 0 20 5 20 10 0 6 -27 10 -60 10 -33 0 -60 -4 -60 -9z"/>
<path d="M935 436 c-78 -47 -112 -164 -71 -244 36 -71 153 -111 239 -83 30 10
43 8 99 -13 36 -13 97 -32 136 -41 64 -16 79 -16 135 -4 l62 14 -100 6 c-82 6
-268 42 -284 56 -3 2 7 16 22 31 66 69 64 185 -5 249 -60 57 -165 70 -233 29z
m122 4 c22 0 86 -64 104 -105 25 -54 24 -121 -2 -164 -20 -34 -20 -34 -80 -27
-39 4 -66 2 -79 -6 -17 -11 -24 -8 -49 17 -66 62 -82 196 -31 250 26 28 74 46
105 39 11 -2 25 -4 32 -4z m23 -320 c-20 -13 -60 -13 -60 0 0 6 17 10 38 10
27 0 33 -3 22 -10z"/>
</g>
</svg>
